<svg width="24" height="24" viewBox="0 0 24 24" fill="none" xmlns="http://www.w3.org/2000/svg">
<g clip-path="url(#clip0_117_15255)">
<path d="M8 18.9998V20.9998" stroke="black" stroke-width="2" stroke-linecap="round" stroke-linejoin="round"/>
<path d="M8 12.9998V14.9998" stroke="black" stroke-width="2" stroke-linecap="round" stroke-linejoin="round"/>
<path d="M16 18.9998V20.9998" stroke="black" stroke-width="2" stroke-linecap="round" stroke-linejoin="round"/>
<path d="M16 12.9998V14.9998" stroke="black" stroke-width="2" stroke-linecap="round" stroke-linejoin="round"/>
<path d="M12 20.9998V22.9998" stroke="black" stroke-width="2" stroke-linecap="round" stroke-linejoin="round"/>
<path d="M12 14.9998V16.9998" stroke="black" stroke-width="2" stroke-linecap="round" stroke-linejoin="round"/>
<path d="M20 16.5798C21.0513 16.1194 21.9121 15.3113 22.4381 14.2913C22.9641 13.2713 23.1232 12.1014 22.8886 10.978C22.6541 9.85453 22.0402 8.84599 21.1501 8.12161C20.2599 7.39723 19.1477 7.00112 18 6.99977H16.74C16.4231 5.77229 15.8189 4.63772 14.9773 3.68957C14.1358 2.74143 13.081 2.00685 11.8998 1.5464C10.7186 1.08594 9.44494 0.912791 8.18372 1.04122C6.92249 1.16964 5.70984 1.59597 4.64573 2.28506C3.58161 2.97414 2.6965 3.90626 2.06334 5.00457C1.43018 6.10288 1.06711 7.33595 1.00404 8.60212C0.940984 9.8683 1.17974 11.1313 1.70064 12.2871C2.22153 13.4429 3.00965 14.4584 4.00003 15.2498" stroke="black" stroke-width="2" stroke-linecap="round" stroke-linejoin="round"/>
</g>
<defs>
<clipPath id="clip0_117_15255">
<rect width="24" height="24" fill="white" transform="translate(0 -0.000244141)"/>
</clipPath>
</defs>
</svg>
