<svg width="24" height="24" viewBox="0 0 24 24" fill="none" xmlns="http://www.w3.org/2000/svg">
<path d="M4.97282 10H6.96186C8.9509 10 9.94542 9 9.94542 7V5C9.94542 3 8.9509 2 6.96186 2H4.97282C2.98378 2 1.98926 3 1.98926 5V7C1.98926 9 2.98378 10 4.97282 10Z" stroke="white" stroke-width="1.5" stroke-miterlimit="10" stroke-linecap="round" stroke-linejoin="round"/>
<path d="M16.9069 10H18.8959C20.885 10 21.8795 9 21.8795 7V5C21.8795 3 20.885 2 18.8959 2H16.9069C14.9179 2 13.9233 3 13.9233 5V7C13.9233 9 14.9179 10 16.9069 10Z" stroke="white" stroke-width="1.5" stroke-miterlimit="10" stroke-linecap="round" stroke-linejoin="round"/>
<path d="M16.9069 22H18.8959C20.885 22 21.8795 21 21.8795 19V17C21.8795 15 20.885 14 18.8959 14H16.9069C14.9179 14 13.9233 15 13.9233 17V19C13.9233 21 14.9179 22 16.9069 22Z" stroke="white" stroke-width="1.5" stroke-miterlimit="10" stroke-linecap="round" stroke-linejoin="round"/>
<path d="M4.97282 22H6.96186C8.9509 22 9.94542 21 9.94542 19V17C9.94542 15 8.9509 14 6.96186 14H4.97282C2.98378 14 1.98926 15 1.98926 17V19C1.98926 21 2.98378 22 4.97282 22Z" stroke="white" stroke-width="1.5" stroke-miterlimit="10" stroke-linecap="round" stroke-linejoin="round"/>
</svg>
