<svg width="40" height="40" viewBox="0 0 40 40" fill="none" xmlns="http://www.w3.org/2000/svg">
<path d="M1.6665 30.8426C1.66652 30.9642 1.70682 31.0827 1.78171 31.1813C1.8566 31.28 1.96228 31.3538 2.08382 31.3924C2.23247 31.4396 4.62275 32.1793 8.05407 32.1793C10.0652 32.1835 12.067 31.9212 14.0016 31.3999C17.4989 30.4488 19.6613 28.6424 20.9228 27.1501C21.0837 27.2382 21.2526 27.3122 21.4277 27.371C23.0664 30.0088 27.022 31.888 31.5707 32.1731C31.5841 32.174 31.5975 32.1744 31.6109 32.1744H34.7716C34.9159 32.561 35.1996 32.8869 35.5725 33.0943C35.9455 33.3017 36.3838 33.3775 36.8099 33.3081C37.236 33.2388 37.6226 33.0288 37.9013 32.7152C38.18 32.4017 38.333 32.0048 38.3332 31.5947V29.2758C38.333 28.8656 38.18 28.4688 37.9013 28.1552C37.6226 27.8417 37.236 27.6317 36.8099 27.5624C36.3838 27.493 35.9455 27.5687 35.5725 27.7762C35.1996 27.9836 34.9159 28.3094 34.7716 28.6961H31.6328C28.7445 28.4976 26.1964 27.5449 24.9922 26.2354C25.3233 25.7619 25.4998 25.2062 25.4998 24.638C25.4998 24.0698 25.3233 23.5141 24.9922 23.0406C26.1964 21.731 28.7445 20.7784 31.6328 20.5799H34.7716C34.9159 20.9665 35.1996 21.2923 35.5725 21.4998C35.9455 21.7072 36.3838 21.783 36.8099 21.7136C37.236 21.6442 37.6226 21.4343 37.9013 21.1207C38.18 20.8072 38.333 20.4103 38.3332 20.0002V17.6813C38.333 17.2711 38.18 16.8743 37.9013 16.5607C37.6226 16.2472 37.236 16.0372 36.8099 15.9679C36.3838 15.8985 35.9455 15.9742 35.5725 16.1817C35.1996 16.3891 34.9159 16.7149 34.7716 17.1016H31.6109C31.5975 17.1016 31.5841 17.102 31.5707 17.1029C27.022 17.3879 23.0664 19.2669 21.4277 21.9049C21.2526 21.9638 21.0837 22.0378 20.9228 22.1259C19.6613 20.6336 17.4989 18.8272 14.0016 17.8761C13.506 17.7413 13.0169 17.6264 12.5346 17.5315C12.6466 16.9859 12.8193 16.4532 13.0497 15.9421H15.1109C16.5691 15.9406 17.9671 15.3904 18.9982 14.4122C20.0293 13.4341 20.6093 12.1079 20.6109 10.7246V7.24623C20.6109 7.09248 20.5466 6.94502 20.432 6.8363C20.3174 6.72758 20.1619 6.6665 19.9998 6.6665H17.5554C16.545 6.66741 15.5544 6.93212 14.692 7.43163C13.8297 7.93114 13.1289 8.64617 12.6665 9.49839C12.2041 8.64617 11.5033 7.93114 10.641 7.43163C9.77863 6.93212 8.788 6.66741 7.77761 6.6665H5.33317C5.17109 6.6665 5.01566 6.72758 4.90105 6.8363C4.78644 6.94502 4.72206 7.09248 4.72206 7.24623V10.7246C4.7237 12.1079 5.30369 13.4341 6.33478 14.4122C7.36588 15.3904 8.76387 15.9406 10.2221 15.9421H11.7346C11.563 16.3932 11.4282 16.8561 11.3312 17.3268C6.22845 16.6005 2.27662 17.8224 2.08405 17.8836C1.96253 17.9222 1.85687 17.996 1.78201 18.0947C1.70714 18.1933 1.66686 18.3118 1.66686 18.4334C1.66686 18.5549 1.70714 18.6734 1.78201 18.7721C1.85687 18.8707 1.96253 18.9446 2.08405 18.9831L11.4933 21.9687C11.7742 22.9994 12.1945 23.9913 12.7437 24.9197C12.8231 25.0527 12.9548 25.1505 13.1099 25.1919C13.2651 25.2332 13.4312 25.2148 13.5721 25.1405C13.713 25.0663 13.8172 24.9423 13.8622 24.7954C13.9071 24.6486 13.8891 24.4909 13.812 24.3566C13.4467 23.737 13.1415 23.0872 12.9003 22.4151L19.3941 24.4754C19.3909 24.5294 19.389 24.5835 19.389 24.6381C19.389 24.6928 19.3909 24.7468 19.3941 24.8008L2.08435 30.293C1.96273 30.3315 1.85694 30.4052 1.78195 30.5039C1.70696 30.6025 1.66657 30.721 1.6665 30.8426ZM35.8887 29.2758C35.8887 29.122 35.9531 28.9746 36.0677 28.8659C36.1823 28.7571 36.3378 28.6961 36.4998 28.6961C36.6619 28.6961 36.8173 28.7571 36.932 28.8659C37.0466 28.9746 37.1109 29.122 37.1109 29.2758V31.5947C37.1109 31.7484 37.0466 31.8959 36.932 32.0046C36.8173 32.1133 36.6619 32.1744 36.4998 32.1744C36.3378 32.1744 36.1823 32.1133 36.0677 32.0046C35.9531 31.8959 35.8887 31.7484 35.8887 31.5947V29.2758ZM35.8887 17.6813C35.8887 17.5275 35.9531 17.3801 36.0677 17.2714C36.1823 17.1626 36.3378 17.1016 36.4998 17.1016C36.6619 17.1016 36.8173 17.1626 36.932 17.2714C37.0466 17.3801 37.1109 17.5275 37.1109 17.6813V20.0002C37.1109 20.1539 37.0466 20.3014 36.932 20.4101C36.8173 20.5188 36.6619 20.5799 36.4998 20.5799C36.3378 20.5799 36.1823 20.5188 36.0677 20.4101C35.9531 20.3014 35.8887 20.1539 35.8887 20.0002V17.6813ZM13.2776 11.884C13.2789 10.8081 13.73 9.77665 14.532 9.01587C15.3339 8.2551 16.4212 7.82716 17.5554 7.82595H19.3887V10.7246C19.3875 11.8005 18.9363 12.832 18.1344 13.5927C17.3324 14.3535 16.2451 14.7814 15.1109 14.7827H13.9952L16.7972 11.6816C16.9026 11.5649 16.9549 11.4132 16.9425 11.2599C16.9301 11.1066 16.854 10.9642 16.7309 10.8641C16.6079 10.7641 16.4479 10.7145 16.2863 10.7263C16.1247 10.738 15.9747 10.8102 15.8692 10.927L13.2776 13.7952V11.884ZM4.53536 18.5384C6.72863 18.1945 8.96476 18.1742 11.1645 18.4784C11.1056 19.2063 11.1268 19.9381 11.2277 20.6619L4.53536 18.5384ZM33.4443 29.8555H34.6665V31.015H33.4443V29.8555ZM31.5677 29.8541C31.5821 29.855 31.5965 29.8555 31.6109 29.8555H32.2221V31.015H31.6313C27.918 30.7781 24.6686 29.427 22.9994 27.4878C23.4021 27.4173 23.7856 27.2703 24.1269 27.0557C25.5768 28.5801 28.3589 29.6381 31.5677 29.8541ZM33.4443 18.261H34.6665V19.4205H33.4443V18.261ZM31.6313 18.261H32.2221V19.4205H31.6109C31.5965 19.4205 31.5821 19.421 31.5677 19.4219C28.3589 19.6381 25.5768 20.6957 24.1274 22.2203C23.7861 22.0057 23.4026 21.8587 22.9999 21.7882C24.6686 19.849 27.918 18.4979 31.6313 18.261ZM22.4443 22.8988C22.8069 22.8988 23.1613 23.0008 23.4628 23.1919C23.7643 23.383 23.9993 23.6546 24.1381 23.9724C24.2768 24.2902 24.3131 24.6399 24.2424 24.9773C24.1716 25.3146 23.997 25.6245 23.7406 25.8678C23.4842 26.111 23.1576 26.2766 22.8019 26.3437C22.4463 26.4109 22.0777 26.3764 21.7427 26.2448C21.4077 26.1131 21.1214 25.8902 20.9199 25.6042C20.7185 25.3182 20.6109 24.982 20.6109 24.638C20.6115 24.1769 20.8048 23.7348 21.1485 23.4088C21.4922 23.0828 21.9582 22.8993 22.4443 22.8988V22.8988ZM12.0554 13.7952L9.46382 10.927C9.35833 10.8102 9.20828 10.738 9.04667 10.7263C8.88506 10.7145 8.72514 10.7641 8.60208 10.8641C8.47902 10.9642 8.40291 11.1066 8.39049 11.2599C8.37807 11.4132 8.43036 11.5649 8.53585 11.6816L11.3378 14.7827H10.2221C9.08791 14.7814 8.00058 14.3535 7.19862 13.5927C6.39666 12.832 5.94555 11.8005 5.94428 10.7246V7.82595H7.77761C8.91176 7.82716 9.99909 8.2551 10.8011 9.01587C11.603 9.77665 12.0541 10.8081 12.0554 11.884V13.7952ZM12.529 21.0747C12.3695 20.288 12.3177 19.4851 12.3748 18.6859C12.7994 18.7718 13.2299 18.8724 13.6647 18.9907C16.8942 19.8689 18.8676 21.5342 20.005 22.8943C19.8908 23.0378 19.7909 23.1911 19.7066 23.3521L12.529 21.0747ZM19.7069 25.9239C19.7912 26.0849 19.8911 26.2382 20.0053 26.3817C18.8676 27.742 16.8942 29.4071 13.665 30.2853C9.98869 31.2853 6.60375 31.059 4.54018 30.7361L19.7069 25.9239Z" fill="#222222"/>
<path d="M22.5 25.625C22.8452 25.625 23.125 25.3452 23.125 25C23.125 24.6548 22.8452 24.375 22.5 24.375C22.1548 24.375 21.875 24.6548 21.875 25C21.875 25.3452 22.1548 25.625 22.5 25.625Z" fill="#222222"/>
</svg>
