<svg width="25" height="24" viewBox="0 0 25 24" fill="none" xmlns="http://www.w3.org/2000/svg">
<path d="M21.3491 18.7651V12.1196C21.3491 10.9746 21.3491 10.4021 21.2019 9.87461C21.0715 9.40735 20.8572 8.96771 20.5695 8.57715C20.2447 8.13625 19.7937 7.78357 18.8918 7.07822L18.8918 7.07821L16.3411 5.08341C14.9316 3.98107 14.2268 3.4299 13.4479 3.21812C12.7607 3.03128 12.0361 3.03128 11.3489 3.21812C10.5701 3.4299 9.8653 3.98107 8.45577 5.08342L5.90509 7.07821C5.00317 7.78357 4.55221 8.13625 4.22738 8.57715C3.93963 8.96771 3.72534 9.40735 3.59495 9.87461C3.44775 10.4021 3.44775 10.9746 3.44775 12.1196V18.7651C3.44775 19.4488 3.44775 19.7906 3.53047 20.0692C3.72297 20.7176 4.23014 21.2248 4.87852 21.4173C5.15713 21.5 5.49898 21.5 6.18269 21.5H6.79262C6.90868 21.5 6.96671 21.5 7.01575 21.4976C8.04316 21.4471 8.86473 20.6255 8.91521 19.5981C8.91762 19.5491 8.91762 19.4911 8.91762 19.375V16.4808C8.91762 14.5584 10.476 13 12.3984 13C14.3208 13 15.8793 14.5584 15.8793 16.4808V19.375C15.8793 19.4911 15.8793 19.5491 15.8817 19.5981C15.9321 20.6255 16.7537 21.4471 17.7811 21.4976C17.8302 21.5 17.8882 21.5 18.0043 21.5H18.6142C19.2979 21.5 19.6397 21.5 19.9184 21.4173C20.5667 21.2248 21.0739 20.7176 21.2664 20.0692C21.3491 19.7906 21.3491 19.4488 21.3491 18.7651Z" stroke="#76BCA1" stroke-width="1.5"/>
</svg>
