<svg width="25" height="24" viewBox="0 0 25 24" fill="none" xmlns="http://www.w3.org/2000/svg">
<path d="M3.4248 11.2202V15.7102C3.4248 20.2002 5.2248 22.0002 9.7148 22.0002H15.1048C19.5948 22.0002 21.3948 20.2002 21.3948 15.7102V11.2202" stroke="#666666" stroke-width="1.5" stroke-linecap="round" stroke-linejoin="round"/>
<path d="M12.415 12C14.245 12 15.595 10.51 15.415 8.68L14.755 2H10.085L9.41503 8.68C9.23503 10.51 10.585 12 12.415 12Z" stroke="#666666" stroke-width="1.5" stroke-linecap="round" stroke-linejoin="round"/>
<path d="M18.7248 12C20.7448 12 22.2248 10.36 22.0248 8.35L21.7448 5.6C21.3848 3 20.3848 2 17.7648 2H14.7148L15.4148 9.01C15.5848 10.66 17.0748 12 18.7248 12Z" stroke="#666666" stroke-width="1.5" stroke-linecap="round" stroke-linejoin="round"/>
<path d="M6.05492 12C7.70492 12 9.19492 10.66 9.35492 9.01L9.57492 6.8L10.0549 2H7.00492C4.38492 2 3.38492 3 3.02492 5.6L2.75492 8.35C2.55492 10.36 4.03492 12 6.05492 12Z" stroke="#666666" stroke-width="1.5" stroke-linecap="round" stroke-linejoin="round"/>
<path d="M12.415 17C10.745 17 9.91504 17.83 9.91504 19.5V22H14.915V19.5C14.915 17.83 14.085 17 12.415 17Z" stroke="#666666" stroke-width="1.5" stroke-linecap="round" stroke-linejoin="round"/>
</svg>
