<svg width="25" height="24" viewBox="0 0 25 24" fill="none" xmlns="http://www.w3.org/2000/svg">
<path d="M12.8027 22C18.3256 22 22.8027 17.5228 22.8027 12C22.8027 6.47715 18.3256 2 12.8027 2C7.27989 2 2.80273 6.47715 2.80273 12C2.80273 17.5228 7.27989 22 12.8027 22Z" stroke="#666666" stroke-width="1.5" stroke-linecap="round" stroke-linejoin="round"/>
<path d="M8.80283 3H9.80283C7.85283 8.84 7.85283 15.16 9.80283 21H8.80283" stroke="#666666" stroke-width="1.5" stroke-linecap="round" stroke-linejoin="round"/>
<path d="M15.8027 3C17.7527 8.84 17.7527 15.16 15.8027 21" stroke="#666666" stroke-width="1.5" stroke-linecap="round" stroke-linejoin="round"/>
<path d="M3.80273 16V15C9.64273 16.95 15.9627 16.95 21.8027 15V16" stroke="#666666" stroke-width="1.5" stroke-linecap="round" stroke-linejoin="round"/>
<path d="M3.80273 9.0001C9.64273 7.0501 15.9627 7.0501 21.8027 9.0001" stroke="#666666" stroke-width="1.5" stroke-linecap="round" stroke-linejoin="round"/>
</svg>
