<svg width="100" height="100" viewBox="0 0 100 100" fill="none" xmlns="http://www.w3.org/2000/svg">
<path d="M62.8074 48.5263H66.4943C73.006 48.5391 79.2598 45.9844 83.897 41.4172C87.8307 37.5603 90.3211 32.4721 90.9522 27.0019C90.9898 26.6575 90.9542 26.309 90.8477 25.9792C90.7412 25.6495 90.5662 25.3459 90.3342 25.0884C90.1022 24.8308 89.8184 24.6251 89.5013 24.4847C89.1843 24.3443 88.8411 24.2723 88.4943 24.2735H83.715C77.2032 24.2606 70.9494 26.8153 66.3122 31.3826C63.071 34.5693 60.7941 38.6039 59.7426 43.0239L62.8074 48.5263Z" fill="#6AC579"/>
<path d="M40.2583 35.4448C39.2068 31.0248 36.9299 26.9902 33.6887 23.8035C29.0515 19.2362 22.7977 16.6815 16.2859 16.6944H11.5066C11.1598 16.6932 10.8166 16.7652 10.4996 16.9056C10.1825 17.046 9.89871 17.2517 9.6667 17.5093C9.43469 17.7668 9.25972 18.0704 9.15322 18.4001C9.04672 18.7299 9.01111 19.0784 9.04869 19.4228C9.67983 24.893 12.1702 29.9812 16.1039 33.8381C20.7411 38.4053 26.9949 40.96 33.5066 40.9472H37.1935L40.2583 35.4448Z" fill="#6AC579"/>
<path d="M53.6409 67.0643C54.8336 60.0409 58.0803 53.5273 62.972 48.3441C65.256 45.8408 67.9624 43.7578 70.9678 42.19C71.6735 41.8443 72.2174 41.2386 72.485 40.5003C72.7526 39.762 72.7231 38.9488 72.4026 38.2318C72.0821 37.5149 71.4957 36.9501 70.7668 36.6565C70.0379 36.3628 69.2234 36.3631 68.4947 36.6573C68.0395 36.8695 59.8161 40.6287 53.034 51.2999V25.7891C52.8771 20.5487 53.8015 15.3322 55.7499 10.4643C55.9419 10.1065 56.0601 9.71387 56.0974 9.3096C56.1346 8.90533 56.0902 8.4977 55.9668 8.1109C55.8434 7.7241 55.6435 7.366 55.3789 7.05785C55.1144 6.7497 54.7905 6.49778 54.4267 6.31703C54.0628 6.13628 53.6663 6.03039 53.2607 6.00564C52.8551 5.98089 52.4486 6.03778 52.0654 6.17294C51.6822 6.3081 51.3301 6.51877 51.03 6.79246C50.7298 7.06615 50.4878 7.39728 50.3182 7.76621C50.1816 8.03753 46.9651 14.5858 46.9651 25.7891V43.721C40.183 33.0482 31.9596 29.289 31.5044 29.0768C30.7744 28.7761 29.9557 28.7716 29.2224 29.0641C28.4891 29.3567 27.8988 29.9233 27.5768 30.6437C27.2549 31.364 27.2268 32.1814 27.4983 32.9221C27.7699 33.6629 28.3198 34.2688 29.0313 34.611C32.0367 36.1788 34.7431 38.2618 37.0271 40.7651C43.4913 47.6813 47.049 56.814 46.9651 66.276V66.943L53.6409 67.0643Z" fill="#549E5F"/>
<path d="M90.9655 93.9998C91.7703 93.9998 92.5421 93.6804 93.1112 93.1119C93.6803 92.5433 94 91.7722 94 90.9682C94.0035 86.6709 92.3449 82.5384 89.3705 79.4341C86.3961 76.3297 82.3361 74.4937 78.0386 74.3096C76.1848 71.523 73.3687 69.516 70.128 68.6717C66.8873 67.8273 63.4489 68.2047 60.469 69.7319C57.3335 67.761 53.7044 66.7153 50 66.7153C46.2956 66.7153 42.6665 67.761 39.531 69.7319C36.5511 68.2047 33.1127 67.8273 29.872 68.6717C26.6313 69.516 23.8152 71.523 21.9614 74.3096C17.6639 74.4937 13.6039 76.3297 10.6295 79.4341C7.65512 82.5384 5.99645 86.6709 6.00001 90.9682C6.00001 91.7722 6.31971 92.5433 6.88879 93.1119C7.45786 93.6804 8.22969 93.9998 9.03449 93.9998H90.9655Z" fill="#8F5C4A"/>
<path d="M23.3725 86.0873C23.073 86.0881 22.7801 85.9989 22.532 85.8312C22.1978 85.6079 21.966 85.2612 21.8875 84.8673C21.809 84.4734 21.8902 84.0644 22.1132 83.7303C23.2335 82.0629 24.9684 80.9059 26.9394 80.5117C28.9104 80.1176 30.9574 80.5183 32.6338 81.6264C32.8111 81.7311 32.9652 81.8708 33.0867 82.037C33.2082 82.2032 33.2946 82.3924 33.3406 82.593C33.3865 82.7936 33.3911 83.0015 33.354 83.204C33.3169 83.4064 33.239 83.5992 33.1249 83.7706C33.0108 83.9419 32.863 84.0883 32.6905 84.2007C32.5179 84.3132 32.3243 84.3893 32.1213 84.4246C31.9183 84.4598 31.7103 84.4534 31.5099 84.4057C31.3095 84.358 31.1209 84.27 30.9557 84.1471C29.9485 83.4819 28.7189 83.2414 27.535 83.4779C26.351 83.7144 25.3086 84.4088 24.6349 85.4098C24.4966 85.6179 24.309 85.7886 24.0888 85.9068C23.8686 86.025 23.6225 86.0871 23.3725 86.0873Z" fill="#70483C"/>
<path d="M72.0797 84.5713C71.8301 84.5715 71.5843 84.5101 71.3641 84.3928C71.1439 84.2754 70.9561 84.1055 70.8174 83.8982C70.1434 82.8976 69.101 82.2034 67.9171 81.9669C66.7333 81.7305 65.5039 81.9708 64.4965 82.6356C64.1613 82.8496 63.7554 82.9236 63.3661 82.8415C62.9769 82.7594 62.6355 82.5278 62.4154 82.1967C62.1954 81.8656 62.1143 81.4614 62.1897 81.0711C62.2651 80.6809 62.4909 80.3358 62.8185 80.1103C64.4948 79.0022 66.5419 78.6014 68.5129 78.9956C70.4838 79.3898 72.2188 80.5468 73.339 82.2142C73.5621 82.5483 73.6432 82.9573 73.5647 83.3512C73.4862 83.7451 73.2544 84.0918 72.9203 84.3151C72.672 84.4825 72.3792 84.5718 72.0797 84.5713Z" fill="#70483C"/>
<path d="M43.0983 80.0243C42.7988 80.0251 42.5059 79.9358 42.2578 79.7681C41.9236 79.5448 41.6918 79.1981 41.6133 78.8042C41.5348 78.4103 41.616 78.0014 41.839 77.6672C42.9596 76.0002 44.6945 74.8434 46.6653 74.4493C48.6362 74.0551 50.6831 74.4556 52.3596 75.5633C52.5369 75.668 52.6911 75.8078 52.8126 75.974C52.9341 76.1402 53.0205 76.3293 53.0664 76.5299C53.1124 76.7306 53.1169 76.9384 53.0799 77.1409C53.0428 77.3433 52.9648 77.5361 52.8508 77.7075C52.7367 77.8789 52.5889 78.0252 52.4163 78.1377C52.2438 78.2501 52.0501 78.3263 51.8471 78.3615C51.6442 78.3967 51.4362 78.3903 51.2358 78.3426C51.0354 78.2949 50.8468 78.2069 50.6815 78.0841C49.6743 77.4189 48.4448 77.1783 47.2608 77.4148C46.0768 77.6513 45.0344 78.3457 44.3607 79.3467C44.2224 79.5548 44.0349 79.7256 43.8146 79.8438C43.5944 79.962 43.3484 80.024 43.0983 80.0243Z" fill="#70483C"/>
</svg>
