<svg width="88" height="88" viewBox="0 0 88 88" fill="none" xmlns="http://www.w3.org/2000/svg">
<path d="M56.6643 41.4718H60.3358C66.8205 41.4843 73.0483 38.993 77.6662 34.539C81.5836 30.7778 84.0636 25.8156 84.6921 20.4811C84.7295 20.1452 84.694 19.8054 84.588 19.4838C84.4819 19.1622 84.3077 18.8662 84.0766 18.615C83.8456 18.3639 83.563 18.1633 83.2472 18.0263C82.9315 17.8894 82.5897 17.8192 82.2444 17.8204H77.4849C71.0002 17.8078 64.7724 20.2992 60.1545 24.7532C56.9268 27.8609 54.6594 31.7954 53.6122 36.1059L56.6643 41.4718Z" fill="#6AC579"/>
<path d="M34.2116 28.7148C33.1644 24.4043 30.897 20.4698 27.6693 17.3621C23.0514 12.9081 16.8236 10.4167 10.3389 10.4292H5.57947C5.2341 10.4281 4.89237 10.4983 4.57662 10.6352C4.26088 10.7722 3.97825 10.9728 3.7472 11.2239C3.51616 11.4751 3.34191 11.7711 3.23586 12.0927C3.1298 12.4143 3.09433 12.7541 3.13176 13.09C3.76027 18.4245 6.24024 23.3866 10.1576 27.1479C14.7755 31.6019 21.0033 34.0932 27.488 34.0807H31.1596L34.2116 28.7148Z" fill="#6AC579"/>
<path d="M47.5382 59.5502C48.7259 52.7009 51.9591 46.3488 56.8304 41.2942C59.1049 38.853 61.8001 36.8216 64.793 35.2927C65.4958 34.9556 66.0374 34.3648 66.3039 33.6449C66.5704 32.9249 66.541 32.1318 66.2218 31.4327C65.9027 30.7335 65.3187 30.1827 64.5928 29.8963C63.867 29.6099 63.0558 29.6103 62.3302 29.8972C61.8769 30.1041 53.6877 33.7701 46.9338 44.1768V19.2984C46.7775 14.188 47.6981 9.10086 49.6384 4.35364C49.8296 4.00473 49.9473 3.62179 49.9844 3.22754C50.0215 2.8333 49.9773 2.43577 49.8544 2.05856C49.7315 1.68135 49.5324 1.33213 49.2689 1.03162C49.0055 0.731108 48.683 0.485433 48.3206 0.309168C47.9583 0.132902 47.5634 0.0296374 47.1595 0.00549976C46.7556 -0.0186379 46.3508 0.0368436 45.9692 0.168652C45.5876 0.300461 45.237 0.505911 44.9381 0.772815C44.6392 1.03972 44.3981 1.36264 44.2292 1.72241C44.0932 1.98701 40.8901 8.3729 40.8901 19.2984V36.7857C34.1362 26.3776 25.9469 22.7116 25.4937 22.5046C24.7667 22.2114 23.9515 22.2069 23.2212 22.4922C22.4909 22.7775 21.903 23.3301 21.5825 24.0326C21.2619 24.7351 21.2338 25.5322 21.5043 26.2546C21.7747 26.977 22.3223 27.5678 23.0308 27.9016C26.0238 29.4305 28.7189 31.4619 30.9935 33.9032C37.4307 40.6478 40.9736 49.554 40.8901 58.7815V59.4319L47.5382 59.5502Z" fill="#549E5F"/>
<path d="M84.7072 58.5058V59.984H3.11682V58.5058C3.11564 57.3079 3.41234 56.1278 3.98134 55.0672C4.55033 54.0065 5.37453 53.0973 6.38283 52.4178C7.39113 51.7383 8.55326 51.3091 9.76897 51.167C10.9847 51.025 12.2174 51.1744 13.3609 51.6025C14.0383 50.5468 14.9788 49.6768 16.0941 49.0744C17.2095 48.4719 18.463 48.1566 19.7371 48.1582C20.4319 48.1604 21.1232 48.2549 21.7919 48.4391C22.6442 47.4271 23.7148 46.6121 24.9268 46.0524C26.1388 45.4928 27.4624 45.2023 28.8027 45.2018C30.576 45.1966 32.3112 45.7059 33.7888 46.6652C35.0641 45.2741 36.6247 44.1613 38.369 43.3996C40.1132 42.6378 42.0019 42.2441 43.912 42.2441C45.8221 42.2441 47.7108 42.6378 49.455 43.3996C51.1993 44.1613 52.7599 45.2741 54.0353 46.6652C55.5128 45.7059 57.248 45.1966 59.0213 45.2018C60.3616 45.2023 61.6852 45.4928 62.8972 46.0524C64.1093 46.6121 65.1798 47.4271 66.0321 48.4391C66.7008 48.2549 67.3921 48.1604 68.0869 48.1582C69.361 48.1566 70.6145 48.4719 71.7299 49.0744C72.8452 49.6768 73.7857 50.5468 74.4631 51.6025C75.6066 51.1744 76.8393 51.025 78.055 51.167C79.2707 51.3091 80.4329 51.7383 81.4412 52.4178C82.4495 53.0973 83.2737 54.0065 83.8427 55.0672C84.4117 56.1278 84.7084 57.3079 84.7072 58.5058Z" fill="#604429"/>
<path d="M84.7897 58.3672H3.19938C1.53045 58.3672 -0.265136 59.6895 0.17752 61.3236C0.620176 62.9577 9.11915 87.9026 9.11915 87.9026H79.767C79.767 87.9026 86.5839 64.1703 87.8116 61.3236C88.1775 59.6664 86.4587 58.3672 84.7897 58.3672Z" fill="#D8962B"/>
<path d="M9.16048 67.3749H6.13862C5.73789 67.3749 5.35358 67.2192 5.07023 66.9419C4.78687 66.6647 4.62769 66.2887 4.62769 65.8967C4.62769 65.5046 4.78687 65.1286 5.07023 64.8514C5.35358 64.5742 5.73789 64.4185 6.13862 64.4185H9.16048C9.56121 64.4185 9.94552 64.5742 10.2289 64.8514C10.5122 65.1286 10.6714 65.5046 10.6714 65.8967C10.6714 66.2887 10.5122 66.6647 10.2289 66.9419C9.94552 67.2192 9.56121 67.3749 9.16048 67.3749Z" fill="#E2E2E2"/>
<path d="M81.6853 67.3749H78.6634C78.2627 67.3749 77.8784 67.2192 77.595 66.9419C77.3117 66.6647 77.1525 66.2887 77.1525 65.8967C77.1525 65.5046 77.3117 65.1286 77.595 64.8514C77.8784 64.5742 78.2627 64.4185 78.6634 64.4185H81.6853C82.086 64.4185 82.4703 64.5742 82.7537 64.8514C83.037 65.1286 83.1962 65.5046 83.1962 65.8967C83.1962 66.2887 83.037 66.6647 82.7537 66.9419C82.4703 67.2192 82.086 67.3749 81.6853 67.3749Z" fill="#E2E2E2"/>
<path d="M15.1569 82.1571H12.1351C11.7344 82.1571 11.35 82.0014 11.0667 81.7242C10.7833 81.4469 10.6241 81.0709 10.6241 80.6789C10.6241 80.2869 10.7833 79.9109 11.0667 79.6336C11.35 79.3564 11.7344 79.2007 12.1351 79.2007H15.1569C15.5577 79.2007 15.942 79.3564 16.2253 79.6336C16.5087 79.9109 16.6679 80.2869 16.6679 80.6789C16.6679 81.0709 16.5087 81.4469 16.2253 81.7242C15.942 82.0014 15.5577 82.1571 15.1569 82.1571Z" fill="#E2E2E2"/>
<path d="M77.3059 82.1571H74.284C73.8833 82.1571 73.499 82.0014 73.2156 81.7242C72.9323 81.4469 72.7731 81.0709 72.7731 80.6789C72.7731 80.2869 72.9323 79.9109 73.2156 79.6336C73.499 79.3564 73.8833 79.2007 74.284 79.2007H77.3059C77.7066 79.2007 78.0909 79.3564 78.3743 79.6336C78.6576 79.9109 78.8168 80.2869 78.8168 80.6789C78.8168 81.0709 78.6576 81.4469 78.3743 81.7242C78.0909 82.0014 77.7066 82.1571 77.3059 82.1571Z" fill="#E2E2E2"/>
</svg>
