<svg width="88" height="78" viewBox="0 0 88 78" fill="none" xmlns="http://www.w3.org/2000/svg">
<path d="M36.5757 24.8596C34.8621 26.5506 32.6595 27.6591 30.2803 28.0277C27.9012 28.3962 25.4664 28.0062 23.3215 26.9129C15.708 22.7212 14.256 14.2219 9.2092 8.78052C9.03459 8.60423 8.90881 8.38557 8.84419 8.146C8.77957 7.90644 8.77834 7.65419 8.8406 7.414C8.90287 7.17381 9.0265 6.95393 9.19937 6.77593C9.37223 6.59793 9.5884 6.46792 9.82666 6.39866C14.6095 5.10359 25.6124 2.94172 33.88 7.48692C35.9646 8.6334 37.6241 10.4212 38.6124 12.5852C39.6008 14.7492 39.8653 17.1742 39.3668 19.5004L36.5757 24.8596Z" fill="#6AC579"/>
<path d="M46.2454 16.4557C45.2666 14.0091 45.2319 11.2861 46.1479 8.81541C47.064 6.34469 48.8656 4.30255 51.2028 3.08553C59.4601 -1.46114 70.4601 0.691928 75.2429 1.98406C75.4811 2.05514 75.6969 2.18659 75.8693 2.36567C76.0417 2.54474 76.1649 2.76535 76.2269 3.00607C76.2888 3.24679 76.2875 3.49945 76.2231 3.73952C76.1586 3.97959 76.0332 4.19891 75.8589 4.37619C70.8121 9.82193 69.3601 18.3183 61.7481 22.5159C59.8727 23.5054 57.7533 23.9372 55.6403 23.7605C53.5273 23.5837 51.5091 22.8058 49.8241 21.5186L46.2454 16.4557Z" fill="#6AC579"/>
<path d="M41.0667 42.8556V38.4702C41.0667 22.3369 26.796 17.7462 26.6493 17.6729C26.2988 17.5131 25.9832 17.2857 25.7205 17.0039C25.4578 16.722 25.2532 16.3912 25.1184 16.0303C24.8461 15.3014 24.8745 14.4942 25.1973 13.7862C25.5202 13.0783 26.1111 12.5276 26.84 12.2553C27.5688 11.983 28.3761 12.0114 29.084 12.3342C34.2991 14.8391 38.8814 18.4889 42.4894 23.0116C46.4054 12.4809 57.024 8.09558 57.5814 7.87558C58.297 7.61395 59.0865 7.6411 59.7825 7.95127C60.4785 8.26143 61.0265 8.83028 61.3105 9.53739C61.5945 10.2445 61.5922 11.0344 61.304 11.7398C61.0159 12.4452 60.4645 13.0108 59.7667 13.3169C59.2387 13.5369 46.9334 18.6849 46.9334 31.1369V42.8556H41.0667Z" fill="#549E5F"/>
<path d="M6.875 77.5251H0V59.6264L6.875 58.6206V77.5251Z" fill="#76625F"/>
<path d="M88 77.5742H81.125V58.668L88 59.6739V77.5742Z" fill="#5E4A45"/>
<path d="M0 48.1827V59.6262H44L50.4001 45.0068L0 48.1827Z" fill="#222222"/>
<path d="M88 48.1827L44 45.0068V59.6262H88V48.1827Z" fill="#222222"/>
<path d="M0 36.7393V48.1829H44L51.1641 42.461L44 36.7393H0Z" fill="#5E4A45"/>
<path d="M44 36.7393H88V48.1829H44V36.7393Z" fill="#222222"/>
</svg>
