<svg width="13" height="18" viewBox="0 0 13 18" fill="none" xmlns="http://www.w3.org/2000/svg">
<path d="M9.49356 16.1583C11.4772 13.2803 11.2439 12.1425 11.769 10.5362C9.14361 9.73302 7.56835 12.3433 6.51818 13.1464C5.46801 13.9496 2.73591 15.1367 1.3356 12.1249C0.985625 14.7352 2.37575 15.7567 4.06769 16.9614L6.51818 17.3076L9.49356 16.1583Z" fill="#5AB282"/>
<path fill-rule="evenodd" clip-rule="evenodd" d="M6.05769 18C2.71142 18 0 14.7756 0 10.8C0 6.8244 6.05769 0 6.05769 0C6.05769 0 12.1154 6.8232 12.1154 10.8C12.1154 14.7768 9.40275 18 6.05769 18ZM6.05769 1.8C6.05769 1.8 1.21154 7.4868 1.21154 10.8C1.21154 14.1144 3.3814 16.8 6.05769 16.8C8.73398 16.8 10.9038 14.1132 10.9038 10.8C10.9038 7.4856 6.05769 1.8 6.05769 1.8Z" fill="#5AB282"/>
</svg>
