<svg width="23" height="22" viewBox="0 0 23 22" fill="none" xmlns="http://www.w3.org/2000/svg">
<path fill-rule="evenodd" clip-rule="evenodd" d="M17.8129 11.7333V10.2667H22.2129V11.7333H17.8129ZM16.3976 4.77687L18.4729 2.703L19.5098 3.73998L17.4345 5.81528L16.3976 4.77687ZM11.2129 16.1333C8.37782 16.1333 6.07956 13.8351 6.07956 11C6.07956 8.16347 8.37782 5.86667 11.2129 5.86667C14.048 5.86667 16.3462 8.16347 16.3462 11C16.3462 13.8351 14.048 16.1333 11.2129 16.1333ZM11.2129 7.32447C9.18302 7.32447 7.53889 8.97013 7.53889 11C7.53889 13.0299 9.18449 14.674 11.2129 14.674C13.2413 14.674 14.8869 13.0299 14.8869 11C14.8869 8.97013 13.2413 7.32447 11.2129 7.32447ZM10.4796 0H11.9462V4.4H10.4796V0ZM2.91596 18.2585L4.9913 16.1846L6.02822 17.223L3.95436 19.2969L2.91596 18.2585ZM2.91596 3.73998L3.95436 2.703L6.02822 4.77687L4.9913 5.81528L2.91596 3.73998ZM4.61289 11.7333H0.212891V10.2667H4.61289V11.7333ZM11.9462 22H10.4796V17.6H11.9462V22ZM19.5098 18.2585L18.4729 19.2969L16.3976 17.223L17.4345 16.1846L19.5098 18.2585Z" fill="#5AB282"/>
<path fill-rule="evenodd" clip-rule="evenodd" d="M11.2314 11.4616L11.2368 11.433L13.6937 13.7749C14.4508 13.0981 14.9273 12.1139 14.9273 11.0185C14.9273 8.97727 13.2726 7.32252 11.2314 7.32239V11.4616Z" fill="#5AB282"/>
</svg>
