<svg width="68" height="68" viewBox="0 0 68 68" fill="none" xmlns="http://www.w3.org/2000/svg">
<rect x="2" y="2" width="64" height="64" rx="14" fill="#70512D" stroke="#6F9F8D" stroke-width="4"/>
<circle cx="34" cy="34" r="22" fill="#7E6547"/>
<g clip-path="url(#clip0_2_9138)">
<path d="M34.8152 31.8359C34.8152 34.0715 33.4946 37.2015 33.4946 37.2015L34.8152 31.8359ZM33.9348 32.7301C33.9348 32.7301 35.2554 29.153 32.1739 26.4702C29.0924 23.7874 24.25 24.6816 24.25 24.6816C24.25 24.6816 24.25 28.2587 26.8913 30.9416C29.5326 33.6244 33.9348 32.7301 33.9348 32.7301ZM34.8152 30.9416C34.8152 30.9416 33.4946 27.3645 36.5761 24.6816C39.6576 21.9988 44.5 22.8931 44.5 22.8931C44.5 22.8931 44.5 26.4702 41.8587 29.153C39.2174 31.8359 34.8152 30.9416 34.8152 30.9416ZM27.7717 37.2015H39.2174C39.2174 37.2015 40.0978 45.25 33.4946 45.25C26.8913 45.25 27.7717 37.2015 27.7717 37.2015Z" stroke="white" stroke-width="2" stroke-linecap="round" stroke-linejoin="round"/>
</g>
<defs>
<clipPath id="clip0_2_9138">
<rect width="24" height="24" fill="white" transform="translate(22 22)"/>
</clipPath>
</defs>
</svg>
