<svg width="30" height="30" viewBox="0 0 30 30" fill="none" xmlns="http://www.w3.org/2000/svg">
<rect x="1" y="1" width="28" height="28" rx="8" fill="#F4A48A"/>
<g clip-path="url(#clip0_2_5178)">
<path d="M22.5169 23.7537H19.3606C19.3166 23.5437 19.23 23.3448 19.1061 23.1696C18.9823 22.9943 18.8237 22.8463 18.6404 22.7347C18.457 22.6231 18.2528 22.5503 18.0402 22.5208C17.8276 22.4913 17.6112 22.5057 17.4044 22.5631C17.2999 22.2999 17.126 22.07 16.9012 21.8979C16.6764 21.7257 16.409 21.6179 16.1277 21.5858C15.8463 21.5537 15.5616 21.5986 15.3037 21.7157C15.0459 21.8328 14.8247 22.0177 14.6637 22.2506C15.4473 22.4966 15.6419 23.4467 15.6044 23.7256C15.5236 23.3748 15.3251 23.0622 15.042 22.8399C14.7588 22.6176 14.4081 22.499 14.0481 22.5037C14.0037 22.2907 13.9153 22.0892 13.7887 21.9122C13.6621 21.7352 13.4999 21.5865 13.3126 21.4756C13.1253 21.3648 12.917 21.2942 12.7009 21.2684C12.4848 21.2425 12.2656 21.262 12.0575 21.3256C11.7312 21.0116 11.3252 20.793 10.8835 20.6935C10.9735 20.5029 11.0894 20.3256 11.2278 20.1667C11.5203 19.8603 11.8736 19.6183 12.265 19.4562C12.6564 19.2942 13.0774 19.2156 13.5009 19.2256C13.5009 19.2256 12.0414 19.6562 11.4765 20.4126C12.6054 21.4637 14.6917 20.8874 15.0156 19.3503C14.7085 16.7771 10.9901 16.9653 10.9489 19.5585C10.6933 19.7996 10.4834 20.0849 10.3294 20.4007C10.1753 20.0848 9.96541 19.7994 9.70977 19.5583C9.6678 16.9643 5.94984 16.7782 5.64307 19.3504C5.94893 20.8355 7.95531 21.4441 9.09285 20.4886C8.65683 19.6718 7.18441 19.1926 7.18441 19.1926C9.04778 19.387 9.49719 20.1883 9.77658 20.6961C9.44163 20.7726 9.12594 20.917 8.84906 21.1204C8.57218 21.3239 8.34 21.582 8.16689 21.8787C7.93341 21.8757 7.7022 21.9249 7.49024 22.0229C7.27828 22.1209 7.09095 22.265 6.94199 22.4449C6.79304 22.6247 6.68624 22.8356 6.62944 23.0621C6.57263 23.2886 6.56727 23.5249 6.61373 23.7537H5.95436C5.87235 23.7551 5.79415 23.7886 5.73662 23.847C5.6791 23.9055 5.64686 23.9842 5.64686 24.0662C5.64686 24.1482 5.6791 24.227 5.73662 24.2854C5.79415 24.3439 5.87235 24.3774 5.95436 24.3787H22.5169C22.5988 24.3773 22.6768 24.3437 22.7342 24.2853C22.7917 24.2268 22.8238 24.1482 22.8238 24.0662C22.8238 23.9843 22.7916 23.9057 22.7342 23.8472C22.6768 23.7888 22.5988 23.7552 22.5169 23.7537V23.7537Z" fill="white"/>
<path d="M23.8043 10.5847L23.49 10.3752C24.0514 8.0368 21.3916 5.33523 19.0277 5.64556C16.6087 5.84901 14.3163 8.60944 16.004 10.7872C15.8265 10.9938 15.7211 11.2526 15.7037 11.5245C15.6863 11.7963 15.7578 12.0664 15.9074 12.2941L16.1199 12.6128L16.5168 13.2066L17.6855 14.9628C17.8407 15.1848 18.2343 15.7912 18.3824 16.0065C18.486 16.1594 18.622 16.2876 18.7807 16.382C18.9395 16.4763 19.1171 16.5345 19.3009 16.5525C19.4847 16.5704 19.6702 16.5475 19.8441 16.4856C20.0181 16.4236 20.1763 16.3241 20.3074 16.194L23.9949 12.5097C24.1242 12.378 24.2231 12.2196 24.2844 12.0456C24.3458 11.8716 24.3682 11.6862 24.35 11.5026C24.3318 11.3189 24.2735 11.1416 24.1792 10.9829C24.0849 10.8243 23.9569 10.6884 23.8043 10.5847V10.5847ZM17.5105 11.9222C17.4514 11.979 17.3722 12.0102 17.2902 12.0092C17.2082 12.0083 17.1299 11.9751 17.0721 11.9169C17.0143 11.8587 16.9817 11.7801 16.9813 11.6981C16.9809 11.6161 17.0127 11.5372 17.0699 11.4784L19.848 8.70027L20.3793 9.05339L17.5105 11.9222ZM22.9234 9.99741L20.0918 8.10968C19.8508 7.95056 19.5624 7.87924 19.275 7.90769C18.9876 7.93615 18.7188 8.06264 18.5137 8.26593L16.4471 10.3325C15.1721 8.57667 17.2005 6.4195 19.087 6.26749C20.9696 6.01303 23.1577 8.14294 22.9234 9.99742L22.9234 9.99741Z" fill="white"/>
<path d="M11.8921 15.6289C12.115 15.6281 12.3303 15.5482 12.4997 15.4034C12.6691 15.2586 12.7816 15.0583 12.8171 14.8383L17.3202 15.5383L17.1671 15.3102L15.4108 12.6758L12.3546 12.9383C12.2117 12.8594 12.0507 12.819 11.8875 12.8209C11.7243 12.8228 11.5644 12.867 11.4233 12.9491C11.2823 13.0313 11.1649 13.1486 11.0828 13.2897C11.0006 13.4308 10.9565 13.5907 10.9546 13.7539V14.6914C10.9553 14.9398 11.0543 15.1779 11.23 15.3535C11.4056 15.5292 11.6437 15.6282 11.8921 15.6289V15.6289ZM11.5796 13.7539C11.5808 13.6718 11.6142 13.5934 11.6727 13.5358C11.7311 13.4781 11.81 13.4458 11.8921 13.4458C11.9742 13.4458 12.053 13.4781 12.1115 13.5358C12.17 13.5934 12.2034 13.6718 12.2046 13.7539V14.6914C12.2034 14.7735 12.1699 14.8518 12.1114 14.9094C12.053 14.967 11.9742 14.9993 11.8921 14.9993C11.81 14.9993 11.7312 14.967 11.6727 14.9094C11.6143 14.8518 11.5808 14.7735 11.5796 14.6914V13.7539Z" fill="white"/>
<path d="M9.41746 14.0517C9.61726 14.0342 9.8184 14.039 10.0171 14.0661C10.0905 14.066 10.1616 14.0402 10.2178 13.9929C10.274 13.9457 10.3118 13.8802 10.3244 13.8079C10.3376 13.365 9.97059 13.4118 9.36863 13.4285C9.28686 13.4361 9.21137 13.4756 9.15847 13.5384C9.10556 13.6012 9.0795 13.6823 9.08592 13.7642C9.09233 13.8461 9.13071 13.9221 9.19275 13.9759C9.25479 14.0297 9.33551 14.057 9.41746 14.0517V14.0517Z" fill="white"/>
<path d="M6.3163 15.9641C6.62438 15.944 6.72486 15.5379 6.93341 15.3627C6.98787 15.3002 7.01527 15.2186 7.0096 15.1359C7.00393 15.0532 6.96564 14.9761 6.90316 14.9216C6.5152 14.6372 6.26953 15.2257 6.05873 15.4752C6.02733 15.5223 6.00921 15.5769 6.00628 15.6334C6.00335 15.69 6.01573 15.7462 6.0421 15.7963C6.06847 15.8463 6.10787 15.8883 6.15613 15.9179C6.20439 15.9474 6.25972 15.9634 6.3163 15.9641Z" fill="white"/>
<path d="M7.6357 14.651C7.87927 14.6154 8.07481 14.4044 8.31044 14.33C8.34808 14.3136 8.38212 14.2899 8.41062 14.2604C8.43911 14.2308 8.46151 14.196 8.47653 14.1578C8.49155 14.1196 8.4989 14.0788 8.49815 14.0377C8.49741 13.9967 8.48858 13.9562 8.47219 13.9185C8.24185 13.4909 7.75235 13.9285 7.46602 14.0757C7.41055 14.113 7.36842 14.1671 7.34576 14.23C7.3231 14.2929 7.32108 14.3614 7.33999 14.4255C7.35891 14.4897 7.39778 14.5461 7.45095 14.5866C7.50413 14.6272 7.56884 14.6497 7.6357 14.651Z" fill="white"/>
<path d="M8.44178 16.8792C8.86322 17.0331 8.92084 16.4249 9.10797 16.2008C9.12982 16.1661 9.14461 16.1274 9.1515 16.0869C9.15838 16.0464 9.15723 16.005 9.14811 15.965C9.13898 15.925 9.12206 15.8872 9.09831 15.8537C9.07457 15.8202 9.04446 15.7917 9.00971 15.7699C8.5738 15.5514 8.42873 16.1699 8.27149 16.4715C8.25589 16.5094 8.24793 16.5501 8.24805 16.5911C8.24817 16.6321 8.25637 16.6727 8.27218 16.7106C8.28799 16.7485 8.31111 16.7829 8.34021 16.8118C8.36931 16.8407 8.40382 16.8636 8.44178 16.8792V16.8792Z" fill="white"/>
<path d="M9.59008 14.901C9.51768 14.9397 9.4634 15.0053 9.43897 15.0836C9.41454 15.162 9.42192 15.2468 9.45952 15.3198C9.49712 15.3927 9.56192 15.448 9.63992 15.4736C9.71791 15.4991 9.80283 15.493 9.87633 15.4564C10.3288 15.2053 10.5621 15.456 10.642 15.0039C10.588 14.5602 10.1517 14.6435 9.59008 14.901V14.901Z" fill="white"/>
</g>
<rect x="1" y="1" width="28" height="28" rx="8" stroke="white"/>
<defs>
<clipPath id="clip0_2_5178">
<rect width="20" height="20" fill="white" transform="translate(5 5)"/>
</clipPath>
</defs>
</svg>
